<svg width="55" height="55" viewBox="0 0 55 55" fill="none" xmlns="http://www.w3.org/2000/svg">
<circle cx="27.439" cy="27.439" r="27.439" fill="url(#paint0_linear)"/>
<path d="M20.9586 36.8343C20.9586 36.8343 19.3687 36.8343 19.3687 35.2444C19.3687 33.6544 20.9586 28.8845 27.3185 28.8845C33.6784 28.8845 35.2684 33.6544 35.2684 35.2444C35.2684 36.8343 33.6784 36.8343 33.6784 36.8343H20.9586ZM27.3185 27.2945C28.5836 27.2945 29.7968 26.792 30.6913 25.8975C31.5859 25.0029 32.0884 23.7897 32.0884 22.5246C32.0884 21.2596 31.5859 20.0463 30.6913 19.1518C29.7968 18.2573 28.5836 17.7547 27.3185 17.7547C26.0535 17.7547 24.8402 18.2573 23.9457 19.1518C23.0511 20.0463 22.5486 21.2596 22.5486 22.5246C22.5486 23.7897 23.0511 25.0029 23.9457 25.8975C24.8402 26.792 26.0535 27.2945 27.3185 27.2945Z" fill="white"/>
<defs>
<linearGradient id="paint0_linear" x1="7.37424" y1="45.9604" x2="46.3034" y2="7.71723" gradientUnits="userSpaceOnUse">
<stop stop-color="#AC2DCC"/>
<stop offset="0.186522" stop-color="#B62FBB"/>
<stop offset="0.400384" stop-color="#CD44B1"/>
<stop offset="1" stop-color="#FFCBA0"/>
</linearGradient>
</defs>
</svg>
