<svg width="16" height="16" viewBox="0 0 16 16" fill="none" xmlns="http://www.w3.org/2000/svg">
<path d="M15.2975 6.40474C15.396 6.93246 15.4497 7.48421 15.4497 8.05998C15.4497 12.5636 12.4355 15.766 7.883 15.766C6.8477 15.7663 5.82248 15.5626 4.86593 15.1666C3.90938 14.7705 3.04024 14.1899 2.30817 13.4578C1.57611 12.7258 0.995461 11.8566 0.599415 10.9001C0.203369 9.94352 -0.00031529 8.9183 3.66324e-07 7.883C-0.00031529 6.8477 0.203369 5.82249 0.599415 4.86593C0.995461 3.90938 1.57611 3.04024 2.30817 2.30817C3.04024 1.57611 3.90938 0.995461 4.86593 0.599415C5.82248 0.203369 6.8477 -0.00031529 7.883 3.66324e-07C10.0115 3.66324e-07 11.7901 0.783175 13.1546 2.05483L10.9324 4.27703V4.27143C10.1052 3.48345 9.05536 3.07905 7.883 3.07905C5.28203 3.07905 3.16793 5.27642 3.16793 7.8782C3.16793 10.4792 5.28203 12.6813 7.883 12.6813C10.2429 12.6813 11.8493 11.332 12.1793 9.47898H7.883V6.40474H15.2983H15.2975Z" fill="white"/>
</svg>
