<svg width="24" height="24" viewBox="0 0 24 24" fill="none" xmlns="http://www.w3.org/2000/svg">
<path d="M13.9961 14.2598V16.3498C13.091 16.0298 12.1224 15.9317 11.1715 16.0636C10.2206 16.1955 9.31529 16.5537 8.53153 17.108C7.74776 17.6623 7.10844 18.3966 6.66726 19.2492C6.22607 20.1018 5.99591 21.0478 5.99609 22.0078L3.99609 22.0068C3.99578 20.7857 4.27501 19.5807 4.81239 18.4842C5.34977 17.3877 6.13103 16.4287 7.09631 15.6808C8.06159 14.9329 9.18527 14.4159 10.3812 14.1695C11.5772 13.923 12.8138 13.9535 13.9961 14.2588V14.2598ZM11.9961 13.0078C8.68109 13.0078 5.99609 10.3228 5.99609 7.00781C5.99609 3.69281 8.68109 1.00781 11.9961 1.00781C15.3111 1.00781 17.9961 3.69281 17.9961 7.00781C17.9961 10.3228 15.3111 13.0078 11.9961 13.0078ZM11.9961 11.0078C14.2061 11.0078 15.9961 9.21781 15.9961 7.00781C15.9961 4.79781 14.2061 3.00781 11.9961 3.00781C9.78609 3.00781 7.99609 4.79781 7.99609 7.00781C7.99609 9.21781 9.78609 11.0078 11.9961 11.0078ZM18.5821 17.0078L16.7531 15.1798L18.1681 13.7648L22.4101 18.0078L18.1681 22.2508L16.7531 20.8358L18.5821 19.0078H14.9961V17.0078H18.5821Z" fill="white"/>
</svg>
